<svg id="Flat" height="512" viewBox="0 0 512 512" width="512" xmlns="http://www.w3.org/2000/svg"><path d="m24 120h464v368h-464z" fill="#c2a186"/><path d="m360 120c0-53.019-46.562-96-104-96s-104 42.981-104 96h-128v32h128v272h208v-272h128v-32z" fill="#ad6643"/><path d="m184 240h144v184h-144z" fill="#962523"/><path d="m256 56c-39.764 0-72 28.654-72 64v120h144v-120c0-35.346-32.235-64-72-64z" fill="#dbb697"/><circle cx="256" cy="120" fill="#962523" r="32"/><g fill="#d4a811"><path d="m184 432a8 8 0 0 1 -8-8v-56a8 8 0 0 1 16 0v56a8 8 0 0 1 -8 8z"/><circle cx="184" cy="352" r="8"/><path d="m328 432a8 8 0 0 1 -8-8v-56a8 8 0 0 1 16 0v56a8 8 0 0 1 -8 8z"/><circle cx="328" cy="352" r="8"/><path d="m256 432a8 8 0 0 1 -8-8v-56a8 8 0 0 1 16 0v56a8 8 0 0 1 -8 8z"/><circle cx="256" cy="352" r="8"/></g><path d="m64 184h32v208h-32z" fill="#ad6643"/><path d="m56 392h48v32h-48z" fill="#95573a"/><path d="m56 152h48v32h-48z" fill="#95573a"/><path d="m416 184h32v208h-32z" fill="#ad6643"/><path d="m408 392h48v32h-48z" fill="#95573a"/><path d="m408 152h48v32h-48z" fill="#95573a"/><path d="m264 240h64a0 0 0 0 1 0 0v64a0 0 0 0 1 0 0 64 64 0 0 1 -64-64 0 0 0 0 1 0 0z" fill="#f7cc38"/><path d="m248 240a0 0 0 0 1 0 0v64a0 0 0 0 1 0 0h-64a0 0 0 0 1 0 0 64 64 0 0 1 64-64z" fill="#f7cc38" transform="matrix(-1 0 0 -1 432 544)"/><path d="m216 400c-22.056 0-40-14.355-40-32a8 8 0 0 1 16 0c0 8.673 10.991 16 24 16 15.45 0 32-9.391 32-16a8 8 0 0 1 16 0c0 9.167-6.207 17.675-17.477 23.958a65.616 65.616 0 0 1 -30.523 8.042z" fill="#f7cc38"/><path d="m296 400a65.616 65.616 0 0 1 -30.523-8.042c-11.27-6.283-17.477-14.791-17.477-23.958a8 8 0 0 1 16 0c0 6.609 16.55 16 32 16 13.009 0 24-7.327 24-16a8 8 0 0 1 16 0c0 17.645-17.944 32-40 32z" fill="#f7cc38"/><path d="m104 456h304v32h-304z" fill="#75452e"/><path d="m104 424h304v32h-304z" fill="#95573a"/><path d="m408 424h80v64h-80z" fill="#ad6643"/><path d="m24 424h80v64h-80z" fill="#ad6643"/></svg>